<svg xmlns="http://www.w3.org/2000/svg" viewBox="0 0 90 60"><rect width="30" height="60" fill="#007a5e"/><rect x="30" width="30" height="60" fill="#ce1126"/><rect x="60" width="30" height="60" fill="#fcd116"/><path d="M45,22l-2.47,7.61,3.8,1.23Z" fill="#fcd116"/><path d="M45,22l2.47,7.61-3.8,1.23Z" fill="#fcd116"/><path d="M52.61,27.53h-8v4Z" fill="#fcd116"/><path d="M52.61,27.53l-6.47,4.7L43.79,29Z" fill="#fcd116"/><path d="M49.7,36.47l-2.47-7.61-3.8,1.24Z" fill="#fcd116"/><path d="M49.7,36.47l-6.47-4.7,2.35-3.24Z" fill="#fcd116"/><path d="M40.3,36.47l6.47-4.7-2.35-3.24Z" fill="#fcd116"/><path d="M40.3,36.47l2.47-7.61,3.8,1.24Z" fill="#fcd116"/><path d="M37.39,27.53l6.47,4.7L46.21,29Z" fill="#fcd116"/><path d="M37.39,27.53h8v4Z" fill="#fcd116"/></svg>