<svg xmlns="http://www.w3.org/2000/svg" viewBox="0 0 12 12"><title>branch</title><path class="icn__path" d="M10,2.06A1.32,1.32,0,1,0,8.21,3.3C8.29,5.18,7.33,5.38,6,5.66a4.52,4.52,0,0,0-2.21.91V3.29A1.31,1.31,0,0,0,3.37.74a1.31,1.31,0,0,0-.44,2.55V8.71A1.31,1.31,0,1,0,4.68,9.94a1.32,1.32,0,0,0-.86-1.23C3.94,7,5,6.78,6.2,6.52s3-.63,2.89-3.24A1.3,1.3,0,0,0,10,2.06Zm-7.37,0a.79.79,0,1,1,.79.78A.79.79,0,0,1,2.58,2.06ZM4.16,10a.79.79,0,1,1-.79-.79A.78.78,0,0,1,4.16,10ZM8.63,2.84a.79.79,0,1,1,.79-.78A.78.78,0,0,1,8.63,2.84Z"/></svg>