<svg xmlns="http://www.w3.org/2000/svg" viewBox="0 0 12 12"><title>code</title><path class="icn__path" d="M11.28,5.44V6.56A1.45,1.45,0,0,0,9.84,7.94c0,1,.61,2.86-2.88,2.86v-1c2.36,0,1.9-.77,1.9-1.91A2.12,2.12,0,0,1,10,6a1.7,1.7,0,0,1-1.1-1.59c0-1.14.45-2.25-1.9-2.25v-1c3.5,0,2.88,2.16,2.88,3.21C9.84,5.15,10.53,5.44,11.28,5.44Zm-9.12-1C2.16,3.36,1.54,1.2,5,1.2v1c-2.35,0-1.9,1.11-1.9,2.25A1.7,1.7,0,0,1,2,6a2.12,2.12,0,0,1,1.1,1.93c0,1.14-.46,1.91,1.9,1.91v1C1.55,10.8,2.16,9,2.16,7.93A1.45,1.45,0,0,0,.72,6.56V5.44C1.47,5.44,2.16,5.15,2.16,4.41Z"/></svg>