<svg xmlns="http://www.w3.org/2000/svg" viewBox="0 0 12 12"><title>controls</title><path class="icn__path" d="M6,4.75a.42.42,0,0,1,.42.42.42.42,0,0,1-.84,0A.42.42,0,0,1,6,4.75Zm0-.83A1.25,1.25,0,1,0,7.25,5.17,1.25,1.25,0,0,0,6,3.92ZM2.25,5.58A1.25,1.25,0,1,0,3.5,6.83,1.25,1.25,0,0,0,2.25,5.58Zm7.5,0A1.25,1.25,0,1,0,11,6.83,1.25,1.25,0,0,0,9.75,5.58ZM6,3.08a2,2,0,0,1,.42,0V1.83a.42.42,0,0,0-.84,0v1.3A2,2,0,0,1,6,3.08ZM9.75,4.75a2,2,0,0,1,.42,0v-3a.42.42,0,0,0-.84,0v3A2,2,0,0,1,9.75,4.75Zm0,4.17a2,2,0,0,1-.42-.05v1.3a.42.42,0,0,0,.84,0V8.87A2,2,0,0,1,9.75,8.92ZM2.25,4.75a2,2,0,0,1,.42,0v-3a.42.42,0,0,0-.84,0v3A2,2,0,0,1,2.25,4.75ZM6,7.25a2,2,0,0,1-.42,0v3a.42.42,0,0,0,.84,0v-3A2,2,0,0,1,6,7.25ZM2.25,8.92a2,2,0,0,1-.42-.05v1.3a.42.42,0,0,0,.84,0V8.87A2,2,0,0,1,2.25,8.92Z"/></svg>