<svg xmlns="http://www.w3.org/2000/svg" viewBox="0 0 12 12"><title>dashboard</title><path class="icn__path" d="M11,6.42A5,5,0,0,0,1.35,4.5,5.12,5.12,0,0,0,1.9,9.35H3.73A2.63,2.63,0,0,0,6,10.6,2.66,2.66,0,0,0,8.28,9.35H10.1A5.1,5.1,0,0,0,11,6.42ZM9.14,3.78l-.92.92a2.4,2.4,0,0,0-.45-.45l.92-.92A3.82,3.82,0,0,1,9.14,3.78ZM7.29,2.54a3.23,3.23,0,0,1,.58.24L7.37,4a3,3,0,0,0-.58-.24Zm-1.71-.2h.84V3.65L6,3.63l-.42,0Zm0,4.37L6,4.5l.47,2.21A1,1,0,0,1,7,7.57a1,1,0,0,1-2,0A1,1,0,0,1,5.53,6.71ZM4.7,2.54l.5,1.2A2.48,2.48,0,0,0,4.62,4l-.51-1.2A4.35,4.35,0,0,1,4.7,2.54Zm-1.39.79.92.92a2.4,2.4,0,0,0-.45.45l-.92-.92A3.82,3.82,0,0,1,3.31,3.33ZM2.07,5.18a3.23,3.23,0,0,1,.24-.58l1.2.5a3,3,0,0,0-.24.58Zm6.65.46a3,3,0,0,0-.26-.58l1.2-.52a3.76,3.76,0,0,1,.25.58Z"/></svg>