<?xml version="1.0" encoding="utf-8"?>
<!-- Generator: Adobe Illustrator 24.0.3, SVG Export Plug-In . SVG Version: 6.00 Build 0)  -->
<svg version="1.1" id="Layer_1" xmlns="http://www.w3.org/2000/svg" xmlns:xlink="http://www.w3.org/1999/xlink" x="0px" y="0px"
	 viewBox="0 0 12 12" style="enable-background:new 0 0 12 12;" xml:space="preserve">
<title>instagram</title>
<path d="M6,1.3c1.5,0,1.7,0,2.3,0c1.6,0.1,2.3,0.8,2.4,2.4c0,0.6,0,0.8,0,2.3s0,1.7,0,2.3c-0.1,1.6-0.8,2.3-2.4,2.4
	c-0.6,0-0.8,0-2.3,0s-1.7,0-2.3,0c-1.6-0.1-2.3-0.8-2.4-2.4c0-0.6,0-0.8,0-2.3s0-1.7,0-2.3c0.1-1.6,0.8-2.3,2.4-2.4
	C4.3,1.3,4.5,1.3,6,1.3z M6,0.2c-1.6,0-1.8,0-2.4,0C1.5,0.3,0.3,1.5,0.2,3.6c0,0.6,0,0.8,0,2.4s0,1.8,0,2.4c0.1,2.1,1.3,3.3,3.4,3.4
	c0.6,0,0.8,0,2.4,0s1.8,0,2.4,0c2.1-0.1,3.3-1.3,3.4-3.4c0-0.6,0-0.8,0-2.4s0-1.8,0-2.4c-0.1-2.1-1.3-3.3-3.4-3.4
	C7.8,0.2,7.6,0.2,6,0.2z M6,3.1c-1.6,0-3,1.3-3,3s1.3,3,3,3s3-1.3,3-3S7.6,3.1,6,3.1z M6,8C4.9,8,4.1,7.1,4.1,6C4.1,5,4.9,4.1,6,4.1
	C7.1,4.1,7.9,5,7.9,6C7.9,7.1,7.1,7.9,6,8L6,8z M9.1,2.2c-0.4,0-0.7,0.3-0.7,0.7s0.3,0.7,0.7,0.7c0.4,0,0.7-0.3,0.7-0.7c0,0,0,0,0,0
	C9.8,2.6,9.5,2.2,9.1,2.2C9.1,2.2,9.1,2.2,9.1,2.2L9.1,2.2z"/>
</svg>
