<svg xmlns="http://www.w3.org/2000/svg" viewBox="0 0 12 12"><title>twitter</title><path class="icn__path" d="M6,1.28c1.54,0,1.72,0,2.33,0a2.16,2.16,0,0,1,2.36,2.36c0,.61,0,.79,0,2.33s0,1.72,0,2.33a2.16,2.16,0,0,1-2.36,2.36c-.61,0-.79,0-2.33,0s-1.72,0-2.33,0A2.17,2.17,0,0,1,1.31,8.33c0-.61,0-.79,0-2.33s0-1.72,0-2.33A2.16,2.16,0,0,1,3.67,1.31C4.28,1.28,4.46,1.28,6,1.28Zm0-1c-1.56,0-1.76,0-2.37,0A3.18,3.18,0,0,0,.28,3.62c0,.62,0,.82,0,2.38s0,1.76,0,2.38a3.19,3.19,0,0,0,3.35,3.35c.62,0,.82,0,2.38,0s1.76,0,2.38,0a3.18,3.18,0,0,0,3.34-3.35c0-.62,0-.82,0-2.38s0-1.76,0-2.37A3.18,3.18,0,0,0,8.38.28C7.76.25,7.56.24,6,.24ZM6,3A3,3,0,1,0,9,6,3,3,0,0,0,6,3ZM6,7.92A1.92,1.92,0,1,1,7.92,6,1.92,1.92,0,0,1,6,7.92ZM9.07,2.23a.7.7,0,1,0,.7.7A.69.69,0,0,0,9.07,2.23Z"/></svg>