<svg xmlns="http://www.w3.org/2000/svg" viewBox="0 0 12 12"><title>line</title><path d="M9.26,3.62a1.48,1.48,0,0,1-.38-1,1.44,1.44,0,1,1,1.44,1.44h-.21L8.51,7a1.42,1.42,0,0,1,.37,1A1.44,1.44,0,1,1,6,7.92a1.41,1.41,0,0,1,.22-.76L5,5.46a1.54,1.54,0,0,1-.43.06H4.38L2.77,8.42a1.42,1.42,0,0,1,.35.94A1.44,1.44,0,1,1,1.68,7.92l.26,0L3.52,5.08a1.43,1.43,0,0,1-.4-1,1.44,1.44,0,1,1,2.64.8L7,6.56a1.5,1.5,0,0,1,.47-.08l.23,0ZM7.44,7.44A.48.48,0,1,1,7,7.92.49.49,0,0,1,7.44,7.44ZM4.56,3.6a.48.48,0,1,1-.48.48A.49.49,0,0,1,4.56,3.6Z" fill-rule="evenodd"/></svg>