<svg xmlns="http://www.w3.org/2000/svg" viewBox="0 0 12 12"><title>link</title><path class="icn__path" d="M3.44,4.55a3,3,0,0,1,.64-.48A2.83,2.83,0,0,1,7.8,5l-1,1a1.49,1.49,0,0,0-1.69-.86,1.46,1.46,0,0,0-.72.39L2.5,7.41A1.48,1.48,0,0,0,4.59,9.5l.58-.59a3.71,3.71,0,0,0,1.67.26L5.55,10.46a2.84,2.84,0,0,1-4-4Zm3-3L5.16,2.83a3.85,3.85,0,0,1,1.67.25l.58-.58A1.48,1.48,0,0,1,9.5,4.59L7.6,6.49a1.49,1.49,0,0,1-2.09,0A1.63,1.63,0,0,1,5.19,6l-1,1a2.94,2.94,0,0,0,.35.44,3,3,0,0,0,1.34.75,2.82,2.82,0,0,0,2-.28,2.64,2.64,0,0,0,.64-.47l1.9-1.9a2.84,2.84,0,0,0-4-4Z"/></svg>