<?xml version="1.0" encoding="utf-8"?>
<!-- Generator: Adobe Illustrator 24.0.3, SVG Export Plug-In . SVG Version: 6.00 Build 0)  -->
<svg version="1.1" id="Layer_1" xmlns="http://www.w3.org/2000/svg" xmlns:xlink="http://www.w3.org/1999/xlink" x="0px" y="0px"
	 viewBox="0 0 12 12" style="enable-background:new 0 0 12 12;" xml:space="preserve">
<title>twitter</title>
<path d="M0.5,9.5c0-2.3,0-4.7,0-7c0.2-1.1,0.9-1.7,2-2c2.3,0,4.7,0,7,0c1.1,0.2,1.7,0.9,2,2c0,2.3,0,4.7,0,7c-0.2,1.1-0.9,1.7-2,2
	c-2.3,0-4.7,0-7,0C1.4,11.2,0.8,10.6,0.5,9.5z M6.5,9.2c0-0.1,0-0.2,0-0.3c0-0.7,0-1.5,0-2.2c0-0.2,0.1-0.5,0.1-0.7
	c0.2-0.3,0.5-0.5,0.9-0.5c0.4,0,0.6,0.3,0.7,0.6c0.1,0.2,0.1,0.4,0.1,0.6c0,0.6,0,1.3,0,1.9c0,0.2,0,0.4,0,0.5c0.5,0,0.9,0,1.4,0
	c0-1.1,0-2.2,0-3.3c0-0.8-0.4-1.4-1.2-1.6C7.7,4,7,4.2,6.5,4.9c0,0,0,0-0.1,0c0-0.3,0-0.5,0-0.7c-0.5,0-0.9,0-1.3,0c0,1.7,0,3.3,0,5
	C5.5,9.2,6,9.2,6.5,9.2z M2.8,4.2c0,1.7,0,3.3,0,5c0.5,0,0.9,0,1.3,0c0-1.7,0-3.3,0-5C3.7,4.2,3.3,4.2,2.8,4.2z M4.3,2.8
	C4.3,2.3,3.9,2,3.5,2C3,2,2.7,2.3,2.7,2.8c0,0.4,0.4,0.8,0.8,0.8C3.9,3.6,4.3,3.2,4.3,2.8z"/>
</svg>
