<svg class="loading" xmlns="http://www.w3.org/2000/svg" viewBox="0 0 12 12">
  <style>
    .icn--active .loading__body {
      animation: spin 1s forwards infinite linear;
      transform-origin: center;
    }
  </style>

  <path class="loading__body" d="M7.79779 10.1337C5.72474 11.0438 3.25495 10.2668 2.09668 8.26065C0.854038 6.10834 1.59148 3.35618 3.74379 2.11354C5.89611 0.870899 8.64827 1.60834 9.89091 3.76065C10.62 5.02345 10.6674 6.49272 10.1475 7.74247L10.1353 7.76701L10.111 7.80899C9.97297 8.04814 9.66717 8.13007 9.42803 7.992C9.19462 7.85725 9.11 7.56328 9.23443 7.32691C9.24057 7.31526 9.24643 7.30343 9.25127 7.29119C9.62691 6.33382 9.57907 5.22054 9.02488 4.26065C8.05838 2.58663 5.91782 2.01307 4.24379 2.97957C2.56977 3.94606 1.99621 6.08663 2.9627 7.76065C3.84458 9.28811 5.70393 9.89937 7.29445 9.26049C7.55069 9.15756 7.85572 9.23561 7.99379 9.47476C8.13186 9.7139 8.05064 10.0227 7.79779 10.1337Z" />
</svg>
