<svg xmlns="http://www.w3.org/2000/svg" viewBox="0 0 12 12"><path d="M6,0A6,6,0,0,0,3.81,11.59a5.84,5.84,0,0,1,0-1.72l.71-3A2.16,2.16,0,0,1,4.36,6c0-.83.48-1.45,1.08-1.45a.75.75,0,0,1,.76.84,12,12,0,0,1-.49,2,.86.86,0,0,0,.88,1.08c1.07,0,1.89-1.12,1.89-2.74A2.37,2.37,0,0,0,6,3.27a2.59,2.59,0,0,0-2.7,2.61,2.33,2.33,0,0,0,.44,1.37.16.16,0,0,1,0,.17l-.16.68c0,.11-.09.13-.2.08A2.68,2.68,0,0,1,2.17,5.86a3.64,3.64,0,0,1,4-3.64,3.53,3.53,0,0,1,3.7,3.47c0,2.07-1.3,3.73-3.11,3.73a1.6,1.6,0,0,1-1.38-.69L5,10.16a6.71,6.71,0,0,1-.75,1.57A5.81,5.81,0,0,0,6,12,6,6,0,0,0,6,0Z" fill-rule="evenodd"/></svg>