<svg width="12" height="12" viewBox="0 0 12 12"  xmlns="http://www.w3.org/2000/svg">
<path fill-rule="evenodd" clip-rule="evenodd" d="M4.5 1C6.433 1 8 2.567 8 4.5C8 5.20657 7.79063 5.86424 7.43054 6.41435C7.681 6.41841 7.93021 6.516 8.12132 6.70711L10.5962 9.18198C10.9867 9.5725 10.9867 10.2057 10.5962 10.5962C10.2057 10.9867 9.5725 10.9867 9.18198 10.5962L6.70711 8.12132C6.516 7.93021 6.41841 7.681 6.41435 7.43054C5.86424 7.79063 5.20657 8 4.5 8C2.567 8 1 6.433 1 4.5C1 2.567 2.567 1 4.5 1ZM4.5 7C5.88071 7 7 5.88071 7 4.5C7 3.11929 5.88071 2 4.5 2C3.11929 2 2 3.11929 2 4.5C2 5.88071 3.11929 7 4.5 7Z" />
</svg>
