<svg xmlns="http://www.w3.org/2000/svg" viewBox="0 0 12 12"><title>tools</title><path class="icn__path" d="M2.32,6.08.24,4l.65-.66a.76.76,0,0,0,1-.07c.47-.47.33-1.16,1.36-1.94a3.28,3.28,0,0,1,2-.61,6.5,6.5,0,0,1,2.54.59c-2.17.22-3,1.08-2.09,2l.53.53L4.49,5.51,4,5c-.27-.27-.68-.57-1-.27a.51.51,0,0,0,0,.7ZM6.53,4.16,4.83,5.85l4.88,5.08a1.22,1.22,0,0,0,.85.35,1.2,1.2,0,0,0,1.2-1.2,1.23,1.23,0,0,0-.35-.85ZM4.87,7.28,2.65,9.44a1.74,1.74,0,0,1-.38.27L2,9.85l-.49,1,.4.4,1-.51.14-.28a1.72,1.72,0,0,1,.28-.37L5.54,8Zm3-3.16L9.7,2.27a.21.21,0,0,1,.3,0,.21.21,0,0,1,0,.29L8.11,4.42l.42.44L10.42,3a.22.22,0,0,1,.3,0,.21.21,0,0,1,0,.29L8.82,5.16l.49.5,2-2a1.42,1.42,0,0,0,.42-1,1.44,1.44,0,0,0-2.45-1l-2,2Z"/></svg>