<?xml version="1.0" encoding="utf-8"?>
<!-- Generator: Adobe Illustrator 24.0.3, SVG Export Plug-In . SVG Version: 6.00 Build 0)  -->
<svg version="1.1" id="Layer_1" xmlns="http://www.w3.org/2000/svg" xmlns:xlink="http://www.w3.org/1999/xlink" x="0px" y="0px"
	 viewBox="0 0 12 12" style="enable-background:new 0 0 12 12;" xml:space="preserve">
<title>twitter</title>
<path d="M12,2.3c-0.4,0.2-0.9,0.3-1.4,0.4c0.5-0.3,0.9-0.8,1.1-1.4c-0.5,0.3-1,0.5-1.6,0.6C9.6,1.4,9,1.1,8.3,1.1
	c-1.4,0-2.5,1.1-2.5,2.5c0,0.2,0,0.4,0.1,0.5c-2-0.1-3.8-1-5.1-2.5C0.2,2.7,0.5,4.1,1.6,4.9c-0.4,0-0.8-0.1-1.1-0.3
	c0,1.2,0.8,2.2,2,2.4C2.1,7.1,1.7,7.1,1.3,7c0.3,1,1.2,1.7,2.3,1.7c-1,0.8-2.3,1.2-3.6,1c1.1,0.7,2.4,1.1,3.8,1.1c3.8,0,7-3.1,7-6.9
	c0-0.1,0-0.3,0-0.4C11.2,3.2,11.7,2.8,12,2.3z"/>
</svg>
