<svg xmlns="http://www.w3.org/2000/svg" viewBox="0 0 16 16"><title>instagram</title><path d="M8,1.57c2.09,0,2.34,0,3.17,0,2.13.1,3.12,1.11,3.22,3.22,0,.83,0,1.08,0,3.17s0,2.34,0,3.17c-.1,2.11-1.09,3.12-3.22,3.22-.83,0-1.07,0-3.17,0s-2.34,0-3.17,0c-2.13-.1-3.12-1.11-3.22-3.22,0-.83,0-1.07,0-3.17s0-2.34,0-3.17c.1-2.11,1.09-3.12,3.22-3.22C5.66,1.58,5.91,1.57,8,1.57ZM8,.16c-2.13,0-2.4,0-3.23,0C1.92.33.33,1.91.2,4.77c0,.83,0,1.1,0,3.23s0,2.4,0,3.23c.13,2.85,1.71,4.44,4.57,4.57.83,0,1.1,0,3.23,0s2.4,0,3.23,0c2.85-.13,4.44-1.71,4.57-4.57,0-.83,0-1.1,0-3.23s0-2.4,0-3.23C15.67,1.92,14.09.33,11.24.2,10.4.16,10.13.16,8,.16ZM8,4a4,4,0,1,0,4,4A4,4,0,0,0,8,4Zm0,6.64A2.61,2.61,0,1,1,10.61,8,2.61,2.61,0,0,1,8,10.61Zm4.19-7.74a.94.94,0,1,0,.94.94A.94.94,0,0,0,12.19,2.87Z"/></svg>